PathFileType	4	(X/Y/Z)	70_2_45_p0_0-343_filt_butterworth.trc
DataRate	CameraRate	NumFrames	NumMarkers	Units	OrigDataRate	OrigDataStartFrame	OrigNumFrames
59.0	59.0	6	27	m	59.0	85	343
Frame#	Time	RHip			RKnee			RAnkle			RBigToe			RSmallToe			RHeel			LHip			LKnee			LAnkle			LBigToe			LSmallToe			LHeel			Neck			Head			Nose			RShoulder			RElbow			RWrist			RThumb			RIndex			RPinky			LShoulder			LElbow			LWrist			LThumb			LIndex			LPinky			
		X1	Y1	Z1	X2	Y2	Z2	X3	Y3	Z3	X4	Y4	Z4	X5	Y5	Z5	X6	Y6	Z6	X7	Y7	Z7	X8	Y8	Z8	X9	Y9	Z9	X10	Y10	Z10	X11	Y11	Z11	X12	Y12	Z12	X13	Y13	Z13	X14	Y14	Z14	X15	Y15	Z15	X16	Y16	Z16	X17	Y17	Z17	X18	Y18	Z18	X19	Y19	Z19	X20	Y20	Z20	X21	Y21	Z21	X22	Y22	Z22	X23	Y23	Z23	X24	Y24	Z24	X25	Y25	Z25	X26	Y26	Z26	X27	Y27	Z27	
85	1.4406779661016949	0.3642207881768734	0.5461878319278031	0.061740395260145214	0.34617036388298705	0.6419317482419941	0.4728970703115724	0.3753787796605852	0.8104012276761204	0.8957602250591725	0.32023567432523037	0.6410468558809203	1.000465829666485	0.3892282351260506	0.6251804084689278	0.9762126070060406	0.3617940062604597	0.9184066159645716	0.975264696947454	0.14201310206971102	0.6012539278741162	0.06878862432016988	0.1861127140233	0.6739314130463847	0.4816982308759005	0.19529021669805263	0.8275006038054589	0.876876250964875	0.17861209817122137	0.7018547762115601	1.0030262875929954	0.1262411354934082	0.7371378092139375	0.9820811837765047	0.21960169008537228	0.903047076855683	0.9327474174143584	0.19354704682968726	0.2970113578010131	-0.4616894487115314	0.1482550725834308	0.05994972238693594	-0.6796171151183212	0.15386478447504265	0.08136624990122168	-0.5074489001137049	0.38601729466782825	0.2906506371955899	-0.4501540785256808	0.5357410238739873	0.5077906286545504	-0.2805715608452373	0.497062268214153	0.4699843928260764	-0.029593626150715216	0.4133899276973149	0.47712268569715943	0.05026329456773706	0.43165563150187736	0.4537293965346446	0.0684792111064719	0.48021816132574613	0.5190709497980945	0.08919925249950221	0.020867694985926374	0.35919982571762177	-0.4437194926963671	-0.02090592051235298	0.4959338576606321	-0.21050191767682558	0.05152123359207686	0.19843845883843292	-0.16254303337552958	0.10784440770735633	0.10630472110979802	-0.1793213482060484	0.10742939775173442	0.08026649243859407	-0.17038678988989314	0.10149768460298492	0.12019843749869497	-0.11061373076156868
86	1.4576271186440677	0.36260661366133906	0.5503933075870213	0.06135771619357591	0.3461091634697637	0.6402190217460725	0.47454913934065185	0.37539263300869835	0.8108051638058449	0.8984656871869869	0.3193614393631298	0.6351012104897711	0.9997281049963855	0.388082255172017	0.6193191910663167	0.9764960303668583	0.3616867076745892	0.9185947323720738	0.9758719616346698	0.13800151451471188	0.5995692526093865	0.06887706676408455	0.18421682520247126	0.6838542383779351	0.48284013604546494	0.19533696894925712	0.8275697083722539	0.8770937821120782	0.17874926545242864	0.7021608728569441	1.0026922152618984	0.12619035294858322	0.7372564581249427	0.9821656574712038	0.22047398302642768	0.9036705286302877	0.9347400353205081	0.19063066478851004	0.300109176402596	-0.46235901235977683	0.14700848056870147	0.06066323103081546	-0.6817357141260348	0.15202522099315513	0.08075907816338403	-0.5103774723779623	0.38388377153028713	0.29050791619773164	-0.4539381786112182	0.5347898088590829	0.505130830039258	-0.2907062726138867	0.5006410541993535	0.47365905504359673	-0.03817851811026877	0.4162630150604664	0.4788850664167096	0.033534279948231556	0.4313053697143481	0.46715013114675047	0.05441786794567823	0.4768271515840538	0.5235100049168522	0.07605708446000436	0.01801681964130973	0.34940903929397454	-0.4455197950573128	-0.021928749338199906	0.4958846395276777	-0.20512074156967441	0.05572027604921756	0.1838632063126027	-0.18181847057606967	0.10743329788519619	0.09811862270117053	-0.20876302379163975	0.10598125221327534	0.07418665797699331	-0.2039275605801235	0.10663710857422656	0.10347553901166204	-0.14100519972031414
87	1.4745762711864407	0.36195583545693044	0.5572012524844677	0.0605931591379858	0.3459089619179375	0.6360389283832377	0.4741029245233882	0.3753572892400269	0.8098715493934256	0.899573397283149	0.3184953342316575	0.6317233848650744	0.9997094976158759	0.38785340076543856	0.6209363175115867	0.9779828459036863	0.36165399959768413	0.9186893420075711	0.975578920198942	0.1361019305734467	0.5980559443451327	0.06901513980365251	0.1826853878274304	0.6897610926447372	0.4838050988103969	0.19536307507164782	0.8275384921712411	0.8772203389680775	0.1789968075289221	0.7024320506781414	1.003538525875255	0.12600416912604115	0.737291662673353	0.9822097552551208	0.22134561910897504	0.9038112134845697	0.9349078263606929	0.18771298371325407	0.3042346866780154	-0.46267938130873787	0.14575322991997045	0.0629308743420498	-0.6841383074268801	0.14989647252111996	0.0800105499662553	-0.5124766212117348	0.3825515388645096	0.29010532008685236	-0.4582117406217	0.5341743827341353	0.5031149444699932	-0.2981539041248733	0.5026333810767579	0.4799721201854018	-0.04371326483447658	0.4178724840907863	0.47973780676797295	0.02442134606449846	0.4308805701596176	0.4769113446919082	0.043555121515328775	0.47357420334044587	0.5328688644844728	0.06541614321626629	0.01488032380595514	0.3401886031454145	-0.4461199010854174	-0.022014881224533305	0.49403219955460154	-0.19783948664446913	0.06100676292104143	0.17415135900897719	-0.19499123492188658	0.10735488771405796	0.09107769289696044	-0.2263860684699839	0.10526241098084815	0.07030030002643357	-0.22603124069116481	0.11192710613666637	0.0916743385585399	-0.16376557987080254
88	1.4915254237288136	0.36181001434218873	0.5653143546622583	0.06091582206287216	0.3455943826709881	0.6305346715636847	0.47265563512878017	0.37530610670711534	0.8080526187048894	0.8994122182867863	0.31749512448514705	0.6298564163966736	0.9992920955185107	0.388775369452589	0.6271517717534975	0.980202572500834	0.3616063605162274	0.918929955793711	0.9747063858818577	0.13598542579416223	0.5950442450379527	0.069051824472478	0.1816537401601855	0.689834739235806	0.48431358639978866	0.19519451011303843	0.8272348681450268	0.8771978880179316	0.17914111402980937	0.7025861558713377	1.005481383110319	0.1258243013795203	0.7373308028517704	0.9822822000696543	0.22152734515266997	0.9028858644753822	0.9328706543591734	0.18536958519253002	0.30724166011262993	-0.4628760111809041	0.14388561958746215	0.06602022353641246	-0.6861807788550278	0.14714940350044012	0.07981529931855062	-0.5134421266627761	0.3821830597277343	0.28970033962445313	-0.46145062444048424	0.5337981116848463	0.501881873991446	-0.30234169128309496	0.5028623831360906	0.4871573244444012	-0.04680299127569518	0.4177469340348692	0.4795703201407711	0.022223358153045145	0.4307933747246637	0.48166975277923596	0.03736771444711667	0.47147476771757546	0.5434841774796916	0.05973575638240591	0.011782802107735392	0.3335103854178945	-0.4458350636872923	-0.022726822151075105	0.4866884209829454	-0.19191045448461508	0.06537520148276203	0.1694426458693203	-0.20213385433753872	0.10737468672615055	0.08560517683992343	-0.23551254880438757	0.10495357120498541	0.06776253323094611	-0.23844658052537032	0.1169583453436799	0.08447613981413406	-0.1788503947923334
89	1.5084745762711864	0.3616781824997485	0.5702836835222711	0.0625601598229927	0.344949535669526	0.6251975536096903	0.4714970600701359	0.3749691351482619	0.8062223821887796	0.8984720222490519	0.31700438826037264	0.6294476068834494	0.9985525488924434	0.39048095027900787	0.6327272458954402	0.9820086554821826	0.36153250701110795	0.9193961107804698	0.9738529200607559	0.13671631321805242	0.5928918946620448	0.0689551891195145	0.18090537477223212	0.6872451823662679	0.4845483415877234	0.19449228915224148	0.8265949143454805	0.8770358105630587	0.17919723148209732	0.7028147694646885	1.0080334658249681	0.12567575081142857	0.7374065470825445	0.982405779629664	0.2209314013406739	0.9019102266994258	0.9301895406348908	0.18411976317941423	0.30833832380993076	-0.4627339681884253	0.14203294121809834	0.06860848128997561	-0.6860774673587471	0.14458274434374443	0.08116041171143293	-0.5131594483016694	0.3824091797281158	0.28954426941659533	-0.4622239215674192	0.5332697669913615	0.5018544619899632	-0.3026506834686501	0.5008830896394167	0.49169913792258724	-0.047523688791267435	0.41610584588807736	0.47951813380854935	0.02442676393822511	0.4308620327820414	0.4843964664703904	0.03693157667371659	0.47068356353789803	0.5519033660598536	0.05999855571122778	0.009233864617260364	0.3299507146469163	-0.44460189422149987	-0.02457744617773301	0.476239065965328	-0.18889100120852223	0.06776832129778154	0.16742260977962314	-0.20396578148137076	0.10810568054687017	0.08270809226076484	-0.23854246919535715	0.10534898775465493	0.06579707819103495	-0.24227486480536586	0.12076579504609125	0.08234477161784148	-0.18393690333897333
90	1.5254237288135593	0.36147196649233565	0.5688870821270738	0.06451825069287463	0.3433416611298105	0.6194779113852625	0.47099717545912934	0.3738991109691234	0.8045829748916307	0.8969997189824154	0.31718162735944055	0.6300197613817736	0.9981209823801427	0.3919168439937283	0.6351514643093341	0.9827714285310977	0.3614685727360309	0.9200035753162329	0.9735843501690631	0.13752290235335216	0.5934677828080372	0.06881871311237296	0.17986721715002466	0.68523679942881	0.48461483191457505	0.19303313825974475	0.8257606594063556	0.8767847087763038	0.17924146880827135	0.7032953055938788	1.01020964872824	0.12557951145645088	0.7374832617058869	0.9825261012038603	0.2200537855362173	0.9033663844794716	0.9290048776082205	0.18386537087755334	0.3084341184444827	-0.4617974240579318	0.14127020085683117	0.0702387170244238	-0.6833373963339582	0.1434142789022181	0.08452954047527406	-0.5112842233529804	0.3826758839119454	0.28970078466241117	-0.46019435114041285	0.5322987298664542	0.5045479594796648	-0.29791199841943705	0.49676643515483376	0.49337548238727014	-0.04518485473979107	0.4131419247798498	0.48066487216474585	0.028679418225877384	0.43044536975790215	0.48656484588100424	0.04217666457176627	0.4709842677965166	0.557307950164965	0.06611001743443083	0.007794969087763167	0.32916442544873725	-0.44220550788999957	-0.0271740474540361	0.4688727242316557	-0.18866270212806768	0.06818798891523337	0.1658331699382493	-0.20064845323982536	0.11059882624600073	0.08366854009840557	-0.23575997113586414	0.1074172702359016	0.06471791763014387	-0.23815893811632927	0.12254357003324437	0.08475387148755434	-0.1775840061074613
